<svg xmlns="http://www.w3.org/2000/svg" xmlns:svg="http://www.w3.org/2000/svg" xmlns:xlink="http://www.w3.org/1999/xlink" version="1.0" height="580pt" width="460pt" viewBox="440 517 468 586" ><defs><style type="text/css">
            @font-face {
                font-family: 'noto_regular';
                src: url('https://app.creately.com/diagram/assets/fonts/noto/noto-regular.woff') format('woff'),
                     url('https://app.creately.com/diagram/assets/fonts/noto/noto-regular.woff2') format('woff2');
                font-weight: normal;
                font-style: normal;
            }
        p {
            margin: 0;
        }
        </style></defs><defs><style>
            span{ display: inline-block; }
        </style></defs><g id="1fk37uwdh5"><g><path d="M 710.15,548.1 L 710,610" fill="none" stroke="#a0a0a0" stroke-width="1.5" stroke-linecap="round" stroke-linejoin="round"/><path d="M 710,610 L 715.7710549106413,601.3183070805262 L 704.2710886756722,601.2904396340764 Z" fill="rgb(160,160,160)" stroke="#a0a0a0" stroke-width="1.5" stroke-linecap="round" stroke-linejoin="round"/></g></g><g id="2exnwxkr8k"><g transform="translate(675 520)"><path d="M 15,30 L 15,30 L 15.000000000000002,30 A 15 15 0 0 1 0 15.000000000000002 L 0,15 L 0,15.000000000000002 A 15 15 0 0 1 15.000000000000002 0 L 55,0 L 55,0 L 55,0 A 15 15 0 0 1 70 15 L 70,15 L 70,15 A 15 15 0 0 1 55 30 L 15,30 Z" fill="rgba(249,104,114,1)" stroke="#e85861" stroke-width="1" stroke-linecap="round" stroke-linejoin="round"/></g><g transform="translate(694.5, 525.5) rotate(0, 15.5, 9.5)" width="31" height="19"><text text-decoration="none" x="1" fill="rgb(255, 255, 255)" font-size="10pt" font-family="Lato"  y="17">Start</text><text text-decoration="none" x="30" fill="#4b4b4b" font-size="10pt" font-family="noto_regular"  y="17"></text></g></g><g id="2fo2legw4s"><g transform="translate(665 610)"><rect x="0" y="0" width="101" height="51" fill="rgba(62,139,185,1)" stroke="#367da5" stroke-width="1" stroke-linecap="round" stroke-linejoin="round"/></g><g transform="translate(680.5, 618) rotate(0, 35, 17.5)" width="70" height="35"><text text-decoration="none" x="3.5" fill="rgb(255, 255, 255)" font-size="10pt" font-family="Lato"  y="14">Create&#160;</text><text text-decoration="none" x="45.5" fill="rgb(255, 255, 255)" font-size="10pt" font-family="Lato"  y="14">List</text><text text-decoration="none" x="66.5" fill="rgb(255, 255, 255)" font-size="10pt" font-family="Lato"  y="14"></text><text text-decoration="none" x="35" fill="#4b4b4b" font-size="10pt" font-family="noto_regular"  y="36"></text></g></g><g id="1c28t2rdzv"><g transform="translate(665 720)"><path d="M 50,0 L 0,30 L 50,60 L 100,30 L 50,0 Z" fill="rgba(81,198,155,1)" stroke="#40b789" stroke-width="1" stroke-linecap="round" stroke-linejoin="round"/></g><g transform="translate(699, 740.5) rotate(0, 16, 9.5)" width="32" height="19"><text text-decoration="none" x="2" fill="rgb(255, 255, 255)" font-size="10pt" font-family="Lato"  y="17">Save</text><text text-decoration="none" x="30" fill="#4b4b4b" font-size="10pt" font-family="noto_regular"  y="17"></text></g></g><g id="2fjxfz7gb4"><g transform="translate(460 720)"><path d="M 0,60 L 20,0 L 100,0 L 80,60 L 0,60 Z" fill="rgba(62,139,185,1)" stroke="#367da5" stroke-width="1" stroke-linecap="round" stroke-linejoin="round"/></g><g transform="translate(479, 740.5) rotate(0, 31, 9.5)" width="62" height="19"><text text-decoration="none" x="3" fill="rgb(255, 255, 255)" font-size="10pt" font-family="Lato"  y="17">Database</text><text text-decoration="none" x="59" fill="#4b4b4b" font-size="10pt" font-family="noto_regular"  y="17"></text></g></g><g id="rssx80844w"><g transform="translate(680 1070)"><path d="M 15,30 L 15,30 L 15.000000000000002,30 A 15 15 0 0 1 0 15.000000000000002 L 0,15 L 0,15.000000000000002 A 15 15 0 0 1 15.000000000000002 0 L 55,0 L 55,0 L 55,0 A 15 15 0 0 1 70 15 L 70,15 L 70,15 A 15 15 0 0 1 55 30 L 15,30 Z" fill="rgba(249,104,114,1)" stroke="#e85861" stroke-width="1" stroke-linecap="round" stroke-linejoin="round"/></g><g transform="translate(703, 1075.5) rotate(0, 12, 9.5)" width="24" height="19"><text text-decoration="none" x="0.5" fill="rgb(255, 255, 255)" font-size="10pt" font-family="Lato"  y="17">End</text><text text-decoration="none" x="23.5" fill="#4b4b4b" font-size="10pt" font-family="noto_regular"  y="17"></text></g></g><g id="19ops709bi"><g transform="translate(665 820)"><rect x="0" y="0" width="101" height="51" fill="rgba(62,139,185,1)" stroke="#367da5" stroke-width="1" stroke-linecap="round" stroke-linejoin="round"/></g><g transform="translate(677.5, 836) rotate(0, 38, 9.5)" width="76" height="19"><text text-decoration="none" x="3.5" fill="rgb(255, 255, 255)" font-size="10pt" font-family="Lato"  y="17">Create&#160;</text><text text-decoration="none" x="45.5" fill="rgb(255, 255, 255)" font-size="10pt" font-family="Lato"  y="17">Task</text><text text-decoration="none" x="72.5" fill="#4b4b4b" font-size="10pt" font-family="noto_regular"  y="17"></text></g></g><g id="1gw5jy9v6k"><g transform="translate(445 920)"><path d="M 0,60 L 20,0 L 100,0 L 80,60 L 0,60 Z" fill="rgba(62,139,185,1)" stroke="#367da5" stroke-width="1" stroke-linecap="round" stroke-linejoin="round"/></g><g transform="translate(464, 940.5) rotate(0, 31, 9.5)" width="62" height="19"><text text-decoration="none" x="3" fill="rgb(255, 255, 255)" font-size="10pt" font-family="Lato"  y="17">Database</text><text text-decoration="none" x="59" fill="#4b4b4b" font-size="10pt" font-family="noto_regular"  y="17"></text></g></g><g id="lti581qcjr"><g transform="translate(665 920)"><path d="M 50,0 L 0,30 L 50,60 L 100,30 L 50,0 Z" fill="rgba(81,198,155,1)" stroke="#40b789" stroke-width="1" stroke-linecap="round" stroke-linejoin="round"/></g><g transform="translate(699, 940.5) rotate(0, 16, 9.5)" width="32" height="19"><text text-decoration="none" x="2" fill="rgb(255, 255, 255)" font-size="10pt" font-family="Lato"  y="17">Save</text><text text-decoration="none" x="30" fill="#4b4b4b" font-size="10pt" font-family="noto_regular"  y="17"></text></g></g><g id="1hx36yypx2"><g><path d="M 715,660 L 715,683.75 L 715,683.75 L 715,683.75 L 715,720" fill="none" stroke="#367da5" stroke-width="1.5" stroke-linecap="round" stroke-linejoin="round"/><path d="M 715,720 L 720.75,711.304347826087 L 709.25,711.304347826087 Z" fill="rgb(54,125,165)" stroke="#367da5" stroke-width="1.5" stroke-linecap="round" stroke-linejoin="round"/></g></g><g id="89q65izvjk"><g><path d="M 665,750 L 550,750" fill="none" stroke="#367da5" stroke-width="1.5" stroke-linecap="round" stroke-linejoin="round"/><path d="M 550,750 L 558.695652173913,755.75 L 558.695652173913,744.25 Z" fill="rgb(54,125,165)" stroke="#367da5" stroke-width="1.5" stroke-linecap="round" stroke-linejoin="round"/></g></g><g id="832lnuf9gd"><g><path d="M 715,780 L 715,820" fill="none" stroke="#367da5" stroke-width="1.5" stroke-linecap="round" stroke-linejoin="round"/><path d="M 715,820 L 720.75,811.304347826087 L 709.25,811.304347826087 Z" fill="rgb(54,125,165)" stroke="#367da5" stroke-width="1.5" stroke-linecap="round" stroke-linejoin="round"/></g></g><g id="3eczq7hlr6"><g><path d="M 715,870 L 715,920" fill="none" stroke="#367da5" stroke-width="1.5" stroke-linecap="round" stroke-linejoin="round"/><path d="M 715,920 L 720.75,911.304347826087 L 709.25,911.304347826087 Z" fill="rgb(54,125,165)" stroke="#367da5" stroke-width="1.5" stroke-linecap="round" stroke-linejoin="round"/></g></g><g id="bprjwvi5ib"><g><path d="M 665,950 L 535,950" fill="none" stroke="#367da5" stroke-width="1.5" stroke-linecap="round" stroke-linejoin="round"/><path d="M 535,950 L 543.695652173913,955.75 L 543.695652173913,944.25 Z" fill="rgb(54,125,165)" stroke="#367da5" stroke-width="1.5" stroke-linecap="round" stroke-linejoin="round"/></g></g><g id="20064m0z9q"><g><path d="M 715,980 L 715,1070" fill="none" stroke="#367da5" stroke-width="1.5" stroke-linecap="round" stroke-linejoin="round"/><path d="M 715,1070 L 720.75,1061.304347826087 L 709.25,1061.304347826087 Z" fill="rgb(54,125,165)" stroke="#367da5" stroke-width="1.5" stroke-linecap="round" stroke-linejoin="round"/></g></g><g id="2gz4ufmffr"><g transform="translate(595 720)"><rect x="0" y="0" width="54.99997437000275" height="34.749603271484375" fill="rgba(255,255,255,0.01)" stroke="rgba(255,255,255,0.01)" stroke-width="NaN" stroke-linecap="round" stroke-linejoin="round"/></g><g transform="translate(610.4999871850014, 727.8748016357422) rotate(0, 12, 9.5)" width="24" height="19"><text text-decoration="none" x="1.5" fill="rgb(75, 75, 75)" font-size="10pt" font-family="Lato"  y="17">YES</text><text text-decoration="none" x="22.5" fill="#4b4b4b" font-size="10pt" font-family="noto_regular"  y="17"></text></g></g><g id="2pgdsjmgd3"><g transform="translate(585 920)"><rect x="0" y="0" width="54.99997437000275" height="34.749603271484375" fill="rgba(255,255,255,0.01)" stroke="rgba(255,255,255,0.01)" stroke-width="NaN" stroke-linecap="round" stroke-linejoin="round"/></g><g transform="translate(600.4999871850014, 927.8748016357422) rotate(0, 12, 9.5)" width="24" height="19"><text text-decoration="none" x="1.5" fill="rgb(75, 75, 75)" font-size="10pt" font-family="Lato"  y="17">YES</text><text text-decoration="none" x="22.5" fill="#4b4b4b" font-size="10pt" font-family="noto_regular"  y="17"></text></g></g><g id="7khufig6ik"><mask id="9fdd8" x="752" y="737" width="166" height="26" maskUnits="userSpaceOnUse"><rect x="752" y="737" width="166" height="26" fill="white" /><rect x="806" y="737.5" width="58" height="25" fill="black" /></mask><g mask="url(#9fdd8)"><path d="M 765,750 L 765,750 L 905,750" fill="none" stroke="#a0a0a0" stroke-width="1.5" stroke-linecap="round" stroke-linejoin="round"/></g><g transform="translate(809, 740.5)" width="52" height="19"><text text-decoration="none" x="2" fill="rgb(75, 75, 75)" font-size="10pt" font-family="Lato"  y="17">CANCEL</text><text text-decoration="none" x="50" fill="#4b4b4b" font-size="10pt" font-family="noto_regular"  y="17"></text></g></g><g id="x2bd2u39w3"><g><path d="M 905,750 L 905,1085" fill="none" stroke="#a0a0a0" stroke-width="1.5" stroke-linecap="round" stroke-linejoin="round"/></g></g><g id="2ogymlynes"><g><path d="M 905,1085 L 750,1085" fill="none" stroke="#367da5" stroke-width="1.5" stroke-linecap="round" stroke-linejoin="round"/><path d="M 750,1085 L 758.695652173913,1090.75 L 758.695652173913,1079.25 Z" fill="rgb(54,125,165)" stroke="#367da5" stroke-width="1.5" stroke-linecap="round" stroke-linejoin="round"/></g></g><g id="2851c2xti4"><mask id="2f13a" x="752" y="937" width="146" height="26" maskUnits="userSpaceOnUse"><rect x="752" y="937" width="146" height="26" fill="white" /><rect x="796" y="937.5" width="58" height="25" fill="black" /></mask><g mask="url(#2f13a)"><path d="M 765,950 L 765,950 L 885,950" fill="none" stroke="#a0a0a0" stroke-width="1.5" stroke-linecap="round" stroke-linejoin="round"/></g><g transform="translate(799, 940.5)" width="52" height="19"><text text-decoration="none" x="2" fill="rgb(75, 75, 75)" font-size="10pt" font-family="Lato"  y="17">CANCEL</text><text text-decoration="none" x="50" fill="#4b4b4b" font-size="10pt" font-family="noto_regular"  y="17"></text></g></g><g id="8ja5m3z18z"><g><path d="M 885,950 L 885,845" fill="none" stroke="#a0a0a0" stroke-width="1.5" stroke-linecap="round" stroke-linejoin="round"/></g></g><g id="8juaoyj6tr"><g><path d="M 885,845 L 765,845" fill="none" stroke="#a0a0a0" stroke-width="1.5" stroke-linecap="round" stroke-linejoin="round"/><path d="M 765,845 L 773.695652173913,850.75 L 773.695652173913,839.25 Z" fill="rgb(160,160,160)" stroke="#a0a0a0" stroke-width="1.5" stroke-linecap="round" stroke-linejoin="round"/></g></g></svg>